<?xml version="1.0" encoding="UTF-8" standalone="no"?><!DOCTYPE svg PUBLIC "-//W3C//DTD SVG 1.1//EN" "http://www.w3.org/Graphics/SVG/1.1/DTD/svg11.dtd"><svg width="100%" height="100%" viewBox="0 0 2835 527" version="1.1" xmlns="http://www.w3.org/2000/svg" xmlns:xlink="http://www.w3.org/1999/xlink" xml:space="preserve" xmlns:serif="http://www.serif.com/" style="fill-rule:evenodd;clip-rule:evenodd;stroke-linejoin:round;stroke-miterlimit:1.41421;"><g><path d="M472.717,132.226l0,26.321l-401.509,223.06l165.272,91.818l189.614,-105.342l0,-65.525l-189.598,105.333l-47.341,-26.285l282.907,-157.171l0,170.696l-235.582,130.879l-236.204,-131.225l0,-26.356l401.476,-223.042l-165.272,-91.818l-189.615,105.341l0,65.525l189.631,-105.35l47.244,26.338l-282.842,157.135l0,-170.695l235.582,-130.879l236.237,131.242Z" style="fill-rule:nonzero;"/><g><g><path d="M945.158,158.438l0,-46.634l-354.331,0l0,46.634l354.331,0Z"/><path d="M590.827,368.519c0.133,-0.384 53.199,13.191 53.199,13.191l301.132,-223.272l-53.224,-13.172c0,0 -301.24,223.638 -301.107,223.253Z"/><g><path d="M590.827,368.537l0,46.634l354.331,0l0,-46.634l-354.331,0Z"/></g></g><g><rect x="2788.29" y="111.804" width="46.634" height="256.715"/><path d="M2480.59,158.456c0.133,0.385 0,-52.635 0,-52.635l354.33,262.716l0,52.635c0,0 -354.463,-263.1 -354.33,-262.716Z"/><g><rect x="2480.59" y="158.456" width="46.634" height="256.715"/></g></g><g><path d="M1417.6,158.438l0,-46.634l-354.331,0l0,46.634l354.331,0Z"/><path d="M1370.36,286.814l0,-46.634l-289.873,0l0,46.634l289.873,0Z"/><rect x="1063.27" y="117.266" width="46.634" height="297.905"/><g><path d="M1063.27,368.537l0,46.634l354.331,0l0,-46.634l-354.331,0Z"/></g></g><g><path d="M2362.03,158.438l0,-46.634l-354.33,0l0,46.634l354.33,0Z"/><rect x="2007.7" y="111.804" width="46.634" height="303.367"/><rect x="2315.85" y="111.804" width="46.634" height="303.367"/><g><path d="M2007.7,368.537l0,46.634l354.33,0l0,-46.634l-354.33,0Z"/></g></g><g><rect x="1535.71" y="111.804" width="46.634" height="303.367"/><g><path d="M1535.71,368.537l0,46.634l354.331,0l0,-46.634l-354.331,0Z"/></g></g></g></g></svg>